<svg xmlns="http://www.w3.org/2000/svg" width="360" height="360" viewBox="0 0 95.2 95.3"><path d="M180 .5A179.5 179.5 0 0 0 .5 180 179.5 179.5 0 0 0 180 359.5 179.5 179.5 0 0 0 359.5 180 179.5 179.5 0 0 0 180 .5zm0 19.9A159.6 159.6 0 0 1 339.6 180 159.6 159.6 0 0 1 180 339.6 159.6 159.6 0 0 1 20.4 180 159.6 159.6 0 0 1 180 20.4z" style="fill:#fff;fill-opacity:1;stroke:none;stroke-width:1.00920212;stroke-linecap:round;stroke-linejoin:round;stroke-miterlimit:4;stroke-dasharray:none;stroke-opacity:1;paint-order:normal" transform="scale(.26)"/><g transform="translate(0 -201.7)"><circle cx="19" cy="231.7" r=".8" style="fill:#fff;fill-opacity:1;stroke:none;stroke-width:.26458332;stroke-linecap:round;stroke-linejoin:round;stroke-miterlimit:4;stroke-dasharray:none;stroke-opacity:1;paint-order:normal"/><circle cx="20.7" cy="234.8" r="1.1" style="fill:#fff;fill-opacity:1;stroke:none;stroke-width:.26458332;stroke-linecap:round;stroke-linejoin:round;stroke-miterlimit:4;stroke-dasharray:none;stroke-opacity:1;paint-order:normal"/><circle cx="22.8" cy="238.5" r="1.3" style="fill:#fff;fill-opacity:1;stroke:none;stroke-width:.26458332;stroke-linecap:round;stroke-linejoin:round;stroke-miterlimit:4;stroke-dasharray:none;stroke-opacity:1;paint-order:normal"/><circle cx="25.1" cy="242.8" r="1.6" style="fill:#fff;fill-opacity:1;stroke:none;stroke-width:.26458332;stroke-linecap:round;stroke-linejoin:round;stroke-miterlimit:4;stroke-dasharray:none;stroke-opacity:1;paint-order:normal"/><circle cx="27.9" cy="247.8" r="1.9" style="fill:#fff;fill-opacity:1;stroke:none;stroke-width:.26458332;stroke-linecap:round;stroke-linejoin:round;stroke-miterlimit:4;stroke-dasharray:none;stroke-opacity:1;paint-order:normal"/><circle cx="31.3" cy="253.2" r="2.1" style="fill:#fff;fill-opacity:1;stroke:none;stroke-width:.26458332;stroke-linecap:round;stroke-linejoin:round;stroke-miterlimit:4;stroke-dasharray:none;stroke-opacity:1;paint-order:normal"/><circle cx="35.3" cy="259.6" r="2.4" style="fill:#fff;fill-opacity:1;stroke:none;stroke-width:.26458332;stroke-linecap:round;stroke-linejoin:round;stroke-miterlimit:4;stroke-dasharray:none;stroke-opacity:1;paint-order:normal"/><circle cx="39" cy="266.2" r="2.6" style="fill:#fff;fill-opacity:1;stroke:none;stroke-width:.26458332;stroke-linecap:round;stroke-linejoin:round;stroke-miterlimit:4;stroke-dasharray:none;stroke-opacity:1;paint-order:normal"/><circle cx="43.1" cy="273.9" r="2.9" style="fill:#fff;fill-opacity:1;stroke:none;stroke-width:.26458332;stroke-linecap:round;stroke-linejoin:round;stroke-miterlimit:4;stroke-dasharray:none;stroke-opacity:1;paint-order:normal"/><circle cx="47.6" cy="281.1" r="3" style="fill:#fff;fill-opacity:1;stroke:none;stroke-width:.25284755;stroke-linecap:round;stroke-linejoin:round;stroke-miterlimit:4;stroke-dasharray:none;stroke-opacity:1;paint-order:normal"/><circle cx="52.8" cy="272.7" r="3.4" style="fill:#fff;fill-opacity:1;stroke:none;stroke-width:.26458332;stroke-linecap:round;stroke-linejoin:round;stroke-miterlimit:4;stroke-dasharray:none;stroke-opacity:1;paint-order:normal"/><circle cx="57.4" cy="264" r="3.7" style="fill:#fff;fill-opacity:1;stroke:none;stroke-width:.26458332;stroke-linecap:round;stroke-linejoin:round;stroke-miterlimit:4;stroke-dasharray:none;stroke-opacity:1;paint-order:normal"/><circle cx="62.8" cy="254.6" r="4" style="fill:#fff;fill-opacity:1;stroke:none;stroke-width:.26458332;stroke-linecap:round;stroke-linejoin:round;stroke-miterlimit:4;stroke-dasharray:none;stroke-opacity:1;paint-order:normal"/><circle cx="68.3" cy="244.8" r="4.2" style="fill:#fff;fill-opacity:1;stroke:none;stroke-width:.26458332;stroke-linecap:round;stroke-linejoin:round;stroke-miterlimit:4;stroke-dasharray:none;stroke-opacity:1;paint-order:normal"/><circle cx="74.7" cy="234.7" r="4.5" style="fill:#fff;fill-opacity:1;stroke:none;stroke-width:.26458332;stroke-linecap:round;stroke-linejoin:round;stroke-miterlimit:4;stroke-dasharray:none;stroke-opacity:1;paint-order:normal"/></g></svg>