<?xml version="1.0" encoding="UTF-8" standalone="no"?>
<svg
   xmlns:dc="http://purl.org/dc/elements/1.1/"
   xmlns:cc="http://creativecommons.org/ns#"
   xmlns:rdf="http://www.w3.org/1999/02/22-rdf-syntax-ns#"
   xmlns:svg="http://www.w3.org/2000/svg"
   xmlns="http://www.w3.org/2000/svg"
   xmlns:xlink="http://www.w3.org/1999/xlink"
   xmlns:sodipodi="http://sodipodi.sourceforge.net/DTD/sodipodi-0.dtd"
   xmlns:inkscape="http://www.inkscape.org/namespaces/inkscape"
   width="64"
   height="64"
   viewBox="0 0 16.933333 16.933334"
   version="1.1">
    <path
       style="fill:#fff;stroke:none;"
       d="M 8,3 C 5,3 3,5 3,8 v 48 c 0,3 2,5 5,5 h 48 c 3,0 5,-2 5,-5 V 8 C 61,5 59,3 56,3 Z m 8,6 a 6,6 0 0 1 6,6 6,6 0 0 1 -6,6 6,6 0 0 1 -6,-6 6,6 0 0 1 6,-6 z M 13,24 h 6 c 1,0 2,1 2,2 v 27 c 0,1 -1,2 -2,2 h -6 c -1,0 -2,-1 -2,-2 V 26 c 0,-1 1,-2 2,-2 z m 14,0 h 6 c 1,0 2,1 2,2 v 2 c 0,0 0,-4 10,-4 10,0 10,12 10,12 v 17 c 0,1 -1,2 -2,2 h -6 c -1,0 -2,-1 -2,-2 V 38 c 0,0 0,-6 -5,-6 -5,0 -5,6 -5,6 v 15 c 0,1 -1,2 -2,2 h -6 c -1,0 -2,-1 -2,-2 V 26 c 0,-1 1,-2 2,-2 z"
       transform="scale(0.26458334)"/>
</svg>
